<?xml version="1.0" standalone="no"?>
<!DOCTYPE svg PUBLIC "-//W3C//DTD SVG 20010904//EN"
 "http://www.w3.org/TR/2001/REC-SVG-20010904/DTD/svg10.dtd">
<svg version="1.0" xmlns="http://www.w3.org/2000/svg"
 width="512.000000pt" height="512.000000pt" viewBox="0 0 512.000000 512.000000"
 preserveAspectRatio="xMidYMid meet">
<metadata>
Created by potrace 1.11, written by Peter Selinger 2001-2013
</metadata>
<g transform="translate(0.000000,512.000000) scale(0.100000,-0.100000)"
fill="#000000" stroke="none">
<path d="M4664 4156 c-71 -71 -29 -176 71 -176 100 0 142 105 71 176 -26 26
-42 34 -71 34 -29 0 -45 -8 -71 -34z"/>
<path d="M2311 4009 c-77 -13 -218 -62 -302 -105 -254 -127 -406 -453 -449
-960 -13 -147 -2 -312 30 -492 58 -322 219 -547 441 -617 44 -14 99 -25 122
-25 55 0 89 -10 84 -24 -2 -6 -15 -10 -29 -8 -30 3 -318 -121 -335 -145 -20
-26 -90 -32 -399 -32 l-292 -1 -5 29 c-11 52 -29 61 -126 61 -96 0 -116 -10
-123 -60 -3 -24 -7 -25 -83 -31 -116 -9 -171 -44 -214 -139 -19 -42 -21 -65
-21 -386 0 -290 2 -347 16 -380 25 -61 59 -99 111 -125 47 -23 57 -24 353 -29
l305 -5 65 -36 c151 -85 360 -162 565 -208 200 -45 309 -54 565 -48 200 5 242
9 373 36 273 57 497 141 732 275 113 64 105 47 105 225 0 422 -62 641 -199
710 -20 10 -106 42 -191 71 -89 30 -166 62 -180 75 -34 31 -278 138 -317 139
-32 1 -55 23 -30 30 276 76 355 125 462 287 133 202 186 473 140 715 -8 43
-14 78 -12 79 65 27 127 61 131 72 9 22 -4 41 -34 52 -43 15 -73 70 -136 246
-137 391 -263 568 -479 676 -132 66 -203 80 -410 84 -99 2 -204 0 -234 -6z
m345 -69 c298 -31 526 -219 640 -525 10 -27 24 -61 31 -75 7 -14 13 -31 13
-38 0 -24 91 -257 110 -284 11 -15 20 -32 20 -37 0 -19 -53 -26 -195 -26 -155
0 -248 16 -405 67 -261 84 -429 179 -573 320 -55 54 -103 95 -108 92 -5 -3
-21 -29 -35 -57 -49 -98 -291 -427 -313 -427 -11 0 -38 86 -58 188 -23 116
-22 304 1 392 30 110 105 214 201 281 29 20 97 53 151 74 155 60 311 76 520
55z m-278 -739 c36 -19 21 -23 -39 -10 -29 6 -90 17 -135 23 l-82 11 41 68 40
67 76 -73 c42 -41 87 -79 99 -86z m-658 19 c6 -58 14 -116 16 -130 4 -20 -1
-28 -25 -42 -51 -28 -58 -76 -32 -210 13 -62 26 -117 31 -123 4 -5 11 -26 15
-45 11 -53 32 -87 64 -106 28 -17 29 -19 33 -118 5 -128 32 -194 116 -275 64
-63 193 -163 235 -182 15 -7 27 -15 27 -19 0 -4 14 -13 30 -20 21 -9 30 -19
30 -36 0 -23 -3 -24 -73 -24 -233 0 -407 165 -496 470 -66 227 -77 528 -30
805 10 56 40 168 45 162 1 -1 7 -49 14 -107z m477 -79 c56 -11 124 -27 152
-35 50 -15 51 -15 82 11 l31 26 36 -22 c29 -17 137 -73 149 -76 1 -1 -7 -20
-19 -43 l-21 -43 -61 3 c-55 3 -62 6 -74 30 -34 72 -139 108 -313 108 -65 0
-119 3 -119 6 0 11 35 53 45 54 6 0 56 -9 112 -19z m154 -138 c57 -26 79 -73
79 -166 -1 -105 -55 -188 -147 -223 -68 -26 -189 -16 -250 22 -92 57 -150 233
-106 321 32 65 66 75 233 70 119 -3 153 -7 191 -24z m440 -15 c19 -6 40 -20
47 -30 7 -10 19 -18 27 -18 17 0 28 -31 19 -54 -4 -9 -19 -20 -35 -23 -35 -7
-36 -17 -7 -37 59 -41 148 1 148 69 l0 32 93 -16 92 -16 -2 -46 c-5 -97 -54
-184 -126 -221 -59 -30 -181 -37 -242 -14 -79 31 -145 127 -145 213 0 45 29
132 51 154 22 22 34 23 80 7z m-994 -60 c24 -50 33 -87 42 -173 14 -142 14
-155 -3 -155 -35 0 -60 58 -105 254 -19 81 -20 91 -6 112 24 37 40 29 72 -38z
m70 -90 c-2 -13 -4 -3 -4 22 0 25 2 35 4 23 2 -13 2 -33 0 -45z m724 52 c15
-9 19 -22 19 -63 0 -101 76 -210 169 -242 57 -19 192 -19 257 0 59 17 127 73
153 124 10 20 24 61 31 91 23 102 30 99 24 -10 -3 -58 -10 -132 -15 -165 -5
-33 -9 -107 -9 -164 0 -135 -14 -164 -134 -285 -114 -114 -247 -215 -351 -266
-116 -57 -150 -63 -229 -35 -183 64 -549 326 -593 424 -11 25 -18 85 -24 201
-4 91 -10 197 -13 235 -6 70 -6 70 7 28 41 -122 141 -191 292 -201 66 -4 94
-1 136 14 97 34 165 128 176 242 3 31 10 63 16 70 12 15 61 16 88 2z m755 -42
c-11 -73 -47 -196 -63 -215 -13 -16 -14 -4 -8 111 3 71 8 133 11 137 3 5 19 9
36 9 30 0 31 0 24 -42z m86 -223 c0 -144 -19 -241 -68 -354 -69 -160 -151
-254 -275 -316 -65 -33 -205 -73 -216 -61 -3 2 22 22 54 44 139 95 290 250
342 350 20 38 25 66 29 152 4 104 5 105 37 132 28 24 36 42 56 123 29 121 40
102 41 -70z m-1222 -930 c7 -8 17 -15 22 -15 5 0 25 -14 44 -32 36 -34 46 -65
18 -54 -9 3 -90 6 -182 6 -193 0 -195 3 -47 68 99 44 126 49 145 27z m788 -13
c31 -16 83 -39 114 -51 32 -13 62 -29 68 -36 8 -10 -36 -61 -196 -224 -114
-117 -212 -211 -218 -209 -7 2 -52 48 -102 103 -124 136 -118 132 -144 95 -12
-16 -25 -30 -29 -30 -5 0 -11 21 -14 48 -4 26 -9 57 -13 70 -9 32 12 28 52
-12 18 -18 35 -30 36 -25 5 14 291 269 317 283 40 21 67 18 129 -12z m-1931
-557 c3 -363 3 -370 24 -387 26 -22 39 -22 65 -4 18 14 19 33 24 388 l5 373
148 3 c108 2 147 -1 147 -9 0 -7 -25 -38 -55 -70 -99 -104 -141 -227 -132
-384 8 -134 50 -231 143 -330 l46 -50 -318 -3 c-176 -1 -333 0 -351 3 -19 3
-44 20 -62 41 l-31 35 0 348 c0 324 1 349 19 369 38 45 68 52 201 50 l125 -3
2 -370z m1263 340 c17 -16 35 -45 41 -65 7 -22 9 -150 7 -350 -3 -290 -5 -317
-22 -343 -28 -41 -66 -57 -141 -57 -36 0 -65 3 -65 6 0 3 23 31 51 62 183 205
180 500 -6 709 -30 34 -55 64 -55 68 0 4 36 5 79 4 72 -4 83 -7 111 -34z
m-423 -96 c31 -12 33 -21 14 -65 l-18 -40 -84 1 -83 2 -18 43 c-22 51 -13 67
40 73 43 5 118 -2 149 -14z m-228 -93 c12 -18 21 -36 21 -39 0 -3 -17 -25 -38
-48 l-39 -41 -46 20 c-28 12 -47 27 -47 37 0 26 27 71 60 99 37 31 57 25 89
-28z m189 -61 c2 -12 -15 -41 -43 -73 -33 -39 -45 -62 -45 -85 0 -18 -6 -52
-14 -77 -18 -62 -45 -65 -85 -10 -49 68 -55 98 -31 162 31 85 69 108 165 105
42 -2 50 -5 53 -22z m88 -163 c16 -10 34 -48 34 -71 0 -40 -79 -68 -108 -39
-23 23 -14 75 16 97 29 22 41 25 58 13z m163 -128 c29 -37 26 -68 -10 -98 -37
-31 -58 -33 -93 -5 -31 24 -36 81 -9 111 26 29 87 24 112 -8z"/>
<path d="M2185 2978 c-40 -23 -45 -43 -11 -52 36 -9 44 -45 16 -68 -12 -10
-28 -18 -36 -18 -24 0 -15 -27 17 -54 38 -33 60 -33 98 0 61 51 58 136 -7 183
-34 24 -48 25 -77 9z"/>
<path d="M2460 2416 c32 -39 144 -46 196 -11 35 23 25 29 -19 10 -46 -19 -98
-19 -144 0 -44 19 -49 19 -33 1z"/>
<path d="M2347 2264 c-14 -14 -7 -69 12 -100 40 -65 117 -104 206 -104 129 0
242 84 233 173 l-3 32 -221 3 c-121 1 -223 -1 -227 -4z m359 -26 c4 -6 -3 -19
-16 -30 -33 -27 -217 -27 -250 0 -42 34 -18 42 125 42 91 0 136 -4 141 -12z"/>
<path d="M888 341 c-28 -25 -33 -36 -33 -75 0 -60 34 -96 97 -103 37 -4 49 -1
76 22 78 66 36 185 -65 185 -33 0 -50 -7 -75 -29z"/>
</g>
</svg>
